<?xml version="1.0" encoding="UTF-8"?>
<svg width="145px" height="145px" viewBox="0 0 145 145" version="1.1" xmlns="http://www.w3.org/2000/svg" xmlns:xlink="http://www.w3.org/1999/xlink">
    <title>icon-</title>
    <g id="icon-" stroke="none" stroke-width="1" fill="none" fill-rule="evenodd">
        <g id="icon" fill="#1E3258">
            <rect id="Rectangle" x="0" y="0" width="146" height="145" rx="72.5"></rect>
        </g>
        <g id="Group" transform="translate(73.000000, 73.000000) rotate(-9.000000) translate(-73.000000, -73.000000) translate(37.000000, 37.000000)" stroke="#FFFFFF" stroke-width="4.5">
            <rect id="Rectangle" x="0" y="0" width="72" height="72" rx="7.2"></rect>
            <rect id="Rectangle" x="56.52" y="47.16" width="7.2" height="18" rx="3.6"></rect>
            <path d="M8.18545232e-14,30.24 C8.18545232e-14,30.24 5.4,18.72 12.24,18.72 C16.7343781,18.72 16.56,30.24 23.76,30.24 C29.1495665,30.24 26.9882403,18.72 36,18.72 C45.36,18.72 44.28,30.24 48.6,30.24 C53.28,30.24 53.64,18.72 60.12,18.72 C63.72,18.72 72,30.24 72,30.24" id="Path-5"></path>
        </g>
    </g>
</svg>