<svg width="179" height="60" viewBox="0 0 179 60" fill="none" xmlns="http://www.w3.org/2000/svg">
<path d="M0 0H60V60H0V0Z" fill="#1E3258"/>
<path d="M6.68809 30.7928C6.94809 31.7328 7.65309 32.2028 8.80309 32.2028C9.54309 32.2028 10.1031 31.9528 10.4831 31.4528L12.0431 32.3528C11.3031 33.4228 10.2131 33.9578 8.77309 33.9578C7.53309 33.9578 6.53809 33.5828 5.78809 32.8328C5.03809 32.0828 4.66309 31.1378 4.66309 29.9978C4.66309 28.8678 5.03309 27.9278 5.77309 27.1778C6.51309 26.4178 7.46309 26.0378 8.62309 26.0378C9.72309 26.0378 10.6281 26.4178 11.3381 27.1778C12.0581 27.9378 12.4181 28.8778 12.4181 29.9978C12.4181 30.2478 12.3931 30.5128 12.3431 30.7928H6.68809ZM6.65809 29.2928H10.4831C10.3731 28.7828 10.1431 28.4028 9.79309 28.1528C9.45309 27.9028 9.06309 27.7778 8.62309 27.7778C8.10309 27.7778 7.67309 27.9128 7.33309 28.1828C6.99309 28.4428 6.76809 28.8128 6.65809 29.2928Z" fill="white"/>
<path d="M22.0939 26.0378C22.9539 26.0378 23.6389 26.3178 24.1489 26.8778C24.6689 27.4378 24.9289 28.1878 24.9289 29.1278V33.7478H22.9939V29.2628C22.9939 28.8128 22.8839 28.4628 22.6639 28.2128C22.4439 27.9628 22.1339 27.8378 21.7339 27.8378C21.2939 27.8378 20.9489 27.9828 20.6989 28.2728C20.4589 28.5628 20.3389 28.9828 20.3389 29.5328V33.7478H18.4039V29.2628C18.4039 28.8128 18.2939 28.4628 18.0739 28.2128C17.8539 27.9628 17.5439 27.8378 17.1439 27.8378C16.7139 27.8378 16.3689 27.9828 16.1089 28.2728C15.8589 28.5628 15.7339 28.9828 15.7339 29.5328V33.7478H13.7989V26.2478H15.7339V27.0428C16.1839 26.3728 16.8789 26.0378 17.8189 26.0378C18.7389 26.0378 19.4189 26.3978 19.8589 27.1178C20.3589 26.3978 21.1039 26.0378 22.0939 26.0378Z" fill="white"/>
<path d="M27.5623 25.3478C27.2423 25.3478 26.9623 25.2328 26.7223 25.0028C26.4923 24.7628 26.3773 24.4828 26.3773 24.1628C26.3773 23.8428 26.4923 23.5628 26.7223 23.3228C26.9623 23.0828 27.2423 22.9628 27.5623 22.9628C27.8923 22.9628 28.1723 23.0828 28.4023 23.3228C28.6423 23.5628 28.7623 23.8428 28.7623 24.1628C28.7623 24.4828 28.6423 24.7628 28.4023 25.0028C28.1723 25.2328 27.8923 25.3478 27.5623 25.3478ZM26.6023 33.7478V26.2478H28.5373V33.7478H26.6023Z" fill="white"/>
<path d="M34.5084 26.0378C35.3284 26.0378 36.0034 26.3128 36.5334 26.8628C37.0734 27.4128 37.3434 28.1728 37.3434 29.1428V33.7478H35.4084V29.3828C35.4084 28.8828 35.2734 28.5028 35.0034 28.2428C34.7334 27.9728 34.3734 27.8378 33.9234 27.8378C33.4234 27.8378 33.0234 27.9928 32.7234 28.3028C32.4234 28.6128 32.2734 29.0778 32.2734 29.6978V33.7478H30.3384V26.2478H32.2734V27.0878C32.7434 26.3878 33.4884 26.0378 34.5084 26.0378Z" fill="white"/>
<path d="M40.6606 30.7928C40.9206 31.7328 41.6256 32.2028 42.7756 32.2028C43.5156 32.2028 44.0756 31.9528 44.4556 31.4528L46.0156 32.3528C45.2756 33.4228 44.1856 33.9578 42.7456 33.9578C41.5056 33.9578 40.5106 33.5828 39.7606 32.8328C39.0106 32.0828 38.6356 31.1378 38.6356 29.9978C38.6356 28.8678 39.0056 27.9278 39.7456 27.1778C40.4856 26.4178 41.4356 26.0378 42.5956 26.0378C43.6956 26.0378 44.6006 26.4178 45.3106 27.1778C46.0306 27.9378 46.3906 28.8778 46.3906 29.9978C46.3906 30.2478 46.3656 30.5128 46.3156 30.7928H40.6606ZM40.6306 29.2928H44.4556C44.3456 28.7828 44.1156 28.4028 43.7656 28.1528C43.4256 27.9028 43.0356 27.7778 42.5956 27.7778C42.0756 27.7778 41.6456 27.9128 41.3056 28.1828C40.9656 28.4428 40.7406 28.8128 40.6306 29.2928Z" fill="white"/>
<path d="M54.1029 32.8178C53.3329 33.5778 52.3929 33.9578 51.2829 33.9578C50.1729 33.9578 49.2329 33.5778 48.4629 32.8178C47.7029 32.0478 47.3229 31.1078 47.3229 29.9978C47.3229 28.8878 47.7029 27.9528 48.4629 27.1928C49.2329 26.4228 50.1729 26.0378 51.2829 26.0378C52.3929 26.0378 53.3329 26.4228 54.1029 27.1928C54.8729 27.9528 55.2579 28.8878 55.2579 29.9978C55.2579 31.1078 54.8729 32.0478 54.1029 32.8178ZM49.8279 31.4828C50.2179 31.8728 50.7029 32.0678 51.2829 32.0678C51.8629 32.0678 52.3479 31.8728 52.7379 31.4828C53.1279 31.0928 53.3229 30.5978 53.3229 29.9978C53.3229 29.3978 53.1279 28.9028 52.7379 28.5128C52.3479 28.1228 51.8629 27.9278 51.2829 27.9278C50.7029 27.9278 50.2179 28.1228 49.8279 28.5128C49.4479 28.9028 49.2579 29.3978 49.2579 29.9978C49.2579 30.5978 49.4479 31.0928 49.8279 31.4828Z" fill="white"/>
<path d="M74.4916 28.988C74.4916 29.1747 74.6129 29.3287 74.8556 29.45C75.1076 29.562 75.4109 29.6647 75.7656 29.758C76.1203 29.842 76.4749 29.954 76.8296 30.094C77.1843 30.2247 77.4829 30.4487 77.7256 30.766C77.9776 31.0834 78.1036 31.48 78.1036 31.956C78.1036 32.6747 77.8329 33.23 77.2916 33.622C76.7596 34.0047 76.0923 34.196 75.2896 34.196C73.8523 34.196 72.8723 33.6407 72.3496 32.53L73.9176 31.648C74.1229 32.2547 74.5803 32.558 75.2896 32.558C75.9336 32.558 76.2556 32.3574 76.2556 31.956C76.2556 31.7694 76.1296 31.62 75.8776 31.508C75.6349 31.3867 75.3363 31.2794 74.9816 31.186C74.6269 31.0927 74.2723 30.976 73.9176 30.836C73.5629 30.696 73.2596 30.4767 73.0076 30.178C72.7649 29.87 72.6436 29.4874 72.6436 29.03C72.6436 28.3394 72.8956 27.798 73.3996 27.406C73.9129 27.0047 74.5476 26.804 75.3036 26.804C75.8729 26.804 76.3909 26.9347 76.8576 27.196C77.3243 27.448 77.6929 27.812 77.9636 28.288L76.4236 29.128C76.1996 28.652 75.8263 28.414 75.3036 28.414C75.0703 28.414 74.8743 28.4654 74.7156 28.568C74.5663 28.6707 74.4916 28.8107 74.4916 28.988Z" fill="#1E3258"/>
<path d="M84.9934 33.132C84.2747 33.8414 83.3974 34.196 82.3614 34.196C81.3254 34.196 80.448 33.8414 79.7294 33.132C79.02 32.4134 78.6654 31.536 78.6654 30.5C78.6654 29.464 79.02 28.5914 79.7294 27.882C80.448 27.1634 81.3254 26.804 82.3614 26.804C83.3974 26.804 84.2747 27.1634 84.9934 27.882C85.712 28.5914 86.0714 29.464 86.0714 30.5C86.0714 31.536 85.712 32.4134 84.9934 33.132ZM81.0034 31.886C81.3674 32.25 81.82 32.432 82.3614 32.432C82.9027 32.432 83.3554 32.25 83.7194 31.886C84.0834 31.522 84.2654 31.06 84.2654 30.5C84.2654 29.94 84.0834 29.478 83.7194 29.114C83.3554 28.75 82.9027 28.568 82.3614 28.568C81.82 28.568 81.3674 28.75 81.0034 29.114C80.6487 29.478 80.4714 29.94 80.4714 30.5C80.4714 31.06 80.6487 31.522 81.0034 31.886Z" fill="#1E3258"/>
<path d="M95.9239 27H97.6879V33.664C97.6879 34.7467 97.3285 35.5727 96.6099 36.142C95.9005 36.7114 95.0419 36.996 94.0339 36.996C93.2779 36.996 92.6105 36.8514 92.0319 36.562C91.4625 36.2727 91.0239 35.848 90.7159 35.288L92.2559 34.406C92.6105 35.0594 93.2219 35.386 94.0899 35.386C94.6592 35.386 95.1072 35.2367 95.4339 34.938C95.7605 34.6394 95.9239 34.2147 95.9239 33.664V32.908C95.3919 33.6174 94.6452 33.972 93.6839 33.972C92.6945 33.972 91.8639 33.6267 91.1919 32.936C90.5292 32.236 90.1979 31.3867 90.1979 30.388C90.1979 29.3987 90.5339 28.554 91.2059 27.854C91.8779 27.154 92.7039 26.804 93.6839 26.804C94.6452 26.804 95.3919 27.1587 95.9239 27.868V27ZM92.5499 31.774C92.9232 32.1287 93.3945 32.306 93.9639 32.306C94.5332 32.306 94.9999 32.1287 95.3639 31.774C95.7372 31.41 95.9239 30.948 95.9239 30.388C95.9239 29.8374 95.7372 29.3847 95.3639 29.03C94.9999 28.666 94.5332 28.484 93.9639 28.484C93.3945 28.484 92.9232 28.666 92.5499 29.03C92.1859 29.3847 92.0039 29.8374 92.0039 30.388C92.0039 30.948 92.1859 31.41 92.5499 31.774Z" fill="#1E3258"/>
<path d="M100.712 31.242C100.954 32.1194 101.612 32.558 102.686 32.558C103.376 32.558 103.899 32.3247 104.254 31.858L105.71 32.698C105.019 33.6967 104.002 34.196 102.658 34.196C101.5 34.196 100.572 33.846 99.8715 33.146C99.1715 32.446 98.8215 31.564 98.8215 30.5C98.8215 29.4454 99.1669 28.568 99.8575 27.868C100.548 27.1587 101.435 26.804 102.518 26.804C103.544 26.804 104.389 27.1587 105.052 27.868C105.724 28.5774 106.06 29.4547 106.06 30.5C106.06 30.7334 106.036 30.9807 105.99 31.242H100.712ZM100.684 29.842H104.254C104.151 29.366 103.936 29.0114 103.61 28.778C103.292 28.5447 102.928 28.428 102.518 28.428C102.032 28.428 101.631 28.554 101.314 28.806C100.996 29.0487 100.786 29.394 100.684 29.842Z" fill="#1E3258"/>
<path d="M111.072 26.804C111.838 26.804 112.468 27.0607 112.962 27.574C113.466 28.0874 113.718 28.7967 113.718 29.702V34H111.912V29.926C111.912 29.4594 111.786 29.1047 111.534 28.862C111.282 28.61 110.946 28.484 110.526 28.484C110.06 28.484 109.686 28.6287 109.406 28.918C109.126 29.2074 108.986 29.6414 108.986 30.22V34H107.18V24.2H108.986V27.784C109.425 27.1307 110.12 26.804 111.072 26.804Z" fill="#1E3258"/>
<path d="M119.124 28.736H117.542V31.648C117.542 31.8907 117.603 32.068 117.724 32.18C117.846 32.292 118.023 32.3574 118.256 32.376C118.49 32.3854 118.779 32.3807 119.124 32.362V34C117.883 34.14 117.006 34.0234 116.492 33.65C115.988 33.2767 115.736 32.6094 115.736 31.648V28.736H114.518V27H115.736V25.586L117.542 25.04V27H119.124V28.736Z" fill="#1E3258"/>
<path d="M129.033 24.2H130.839V34H129.033V33.174C128.501 33.8554 127.745 34.196 126.765 34.196C125.822 34.196 125.015 33.8414 124.343 33.132C123.68 32.4134 123.349 31.536 123.349 30.5C123.349 29.464 123.68 28.5914 124.343 27.882C125.015 27.1634 125.822 26.804 126.765 26.804C127.745 26.804 128.501 27.1447 129.033 27.826V24.2ZM125.701 31.928C126.074 32.292 126.541 32.474 127.101 32.474C127.661 32.474 128.123 32.292 128.487 31.928C128.851 31.5547 129.033 31.0787 129.033 30.5C129.033 29.9214 128.851 29.45 128.487 29.086C128.123 28.7127 127.661 28.526 127.101 28.526C126.541 28.526 126.074 28.7127 125.701 29.086C125.337 29.45 125.155 29.9214 125.155 30.5C125.155 31.0787 125.337 31.5547 125.701 31.928Z" fill="#1E3258"/>
<path d="M133.247 26.16C132.948 26.16 132.687 26.0527 132.463 25.838C132.248 25.614 132.141 25.3527 132.141 25.054C132.141 24.7554 132.248 24.494 132.463 24.27C132.687 24.046 132.948 23.934 133.247 23.934C133.555 23.934 133.816 24.046 134.031 24.27C134.255 24.494 134.367 24.7554 134.367 25.054C134.367 25.3527 134.255 25.614 134.031 25.838C133.816 26.0527 133.555 26.16 133.247 26.16ZM132.351 34V27H134.157V34H132.351Z" fill="#1E3258"/>
<path d="M141.032 27H142.796V33.664C142.796 34.7467 142.436 35.5727 141.718 36.142C141.008 36.7114 140.15 36.996 139.142 36.996C138.386 36.996 137.718 36.8514 137.14 36.562C136.57 36.2727 136.132 35.848 135.824 35.288L137.364 34.406C137.718 35.0594 138.33 35.386 139.198 35.386C139.767 35.386 140.215 35.2367 140.542 34.938C140.868 34.6394 141.032 34.2147 141.032 33.664V32.908C140.5 33.6174 139.753 33.972 138.792 33.972C137.802 33.972 136.972 33.6267 136.3 32.936C135.637 32.236 135.306 31.3867 135.306 30.388C135.306 29.3987 135.642 28.554 136.314 27.854C136.986 27.154 137.812 26.804 138.792 26.804C139.753 26.804 140.5 27.1587 141.032 27.868V27ZM137.658 31.774C138.031 32.1287 138.502 32.306 139.072 32.306C139.641 32.306 140.108 32.1287 140.472 31.774C140.845 31.41 141.032 30.948 141.032 30.388C141.032 29.8374 140.845 29.3847 140.472 29.03C140.108 28.666 139.641 28.484 139.072 28.484C138.502 28.484 138.031 28.666 137.658 29.03C137.294 29.3847 137.112 29.8374 137.112 30.388C137.112 30.948 137.294 31.41 137.658 31.774Z" fill="#1E3258"/>
<path d="M145.189 26.16C144.891 26.16 144.629 26.0527 144.405 25.838C144.191 25.614 144.083 25.3527 144.083 25.054C144.083 24.7554 144.191 24.494 144.405 24.27C144.629 24.046 144.891 23.934 145.189 23.934C145.497 23.934 145.759 24.046 145.973 24.27C146.197 24.494 146.309 24.7554 146.309 25.054C146.309 25.3527 146.197 25.614 145.973 25.838C145.759 26.0527 145.497 26.16 145.189 26.16ZM144.293 34V27H146.099V34H144.293Z" fill="#1E3258"/>
<path d="M151.616 28.736H150.034V31.648C150.034 31.8907 150.095 32.068 150.216 32.18C150.338 32.292 150.515 32.3574 150.748 32.376C150.982 32.3854 151.271 32.3807 151.616 32.362V34C150.375 34.14 149.498 34.0234 148.984 33.65C148.48 33.2767 148.228 32.6094 148.228 31.648V28.736H147.01V27H148.228V25.586L150.034 25.04V27H151.616V28.736Z" fill="#1E3258"/>
<path d="M157.851 27H159.657V34H157.851V33.174C157.31 33.8554 156.549 34.196 155.569 34.196C154.636 34.196 153.833 33.8414 153.161 33.132C152.498 32.4134 152.167 31.536 152.167 30.5C152.167 29.464 152.498 28.5914 153.161 27.882C153.833 27.1634 154.636 26.804 155.569 26.804C156.549 26.804 157.31 27.1447 157.851 27.826V27ZM154.519 31.928C154.883 32.292 155.345 32.474 155.905 32.474C156.465 32.474 156.927 32.292 157.291 31.928C157.664 31.5547 157.851 31.0787 157.851 30.5C157.851 29.9214 157.664 29.45 157.291 29.086C156.927 28.7127 156.465 28.526 155.905 28.526C155.345 28.526 154.883 28.7127 154.519 29.086C154.155 29.45 153.973 29.9214 153.973 30.5C153.973 31.0787 154.155 31.5547 154.519 31.928Z" fill="#1E3258"/>
<path d="M161.155 34V23.78H162.961V34H161.155Z" fill="#1E3258"/>
<path d="M166.445 35.2534H178.528V36.9874H166.445V35.2534Z" fill="#1E3258"/>
</svg>
