<?xml version="1.0" encoding="UTF-8"?>
<svg width="98px" height="188px" viewBox="0 0 98 188" version="1.1" xmlns="http://www.w3.org/2000/svg" xmlns:xlink="http://www.w3.org/1999/xlink">
    <title>work</title>
    <g id="Page-1" stroke="none" stroke-width="1" fill="none" fill-rule="evenodd">
        <g id="work" transform="translate(3.000000, 4.142563)" stroke="#FFFFFF" stroke-width="6">
            <path d="M35,59.857437 L45,59.857437 C64.3299662,59.857437 80,75.5274708 80,94.857437 L80,145.857437 C80,165.187403 64.3299662,180.857437 45,180.857437 L35,180.857437 C15.6700338,180.857437 2.36723813e-15,165.187403 0,145.857437 L0,94.857437 C-2.36723813e-15,75.5274708 15.6700338,59.857437 35,59.857437 Z" id="Rectangle"></path>
            <rect id="Rectangle" x="32" y="67.857437" width="16" height="36" rx="8"></rect>
            <line x1="0" y1="112.857437" x2="80" y2="112.857437" id="Path"></line>
            <path d="M53.980005,-3 L53.8018068,-3 C56.4694169,-2.99999785 58.9362604,-1.58305002 60.280299,0.721229526 C66.080103,10.6646715 68.980005,20.4242617 68.980005,30 C68.980005,39.9272717 65.0978697,51.3601031 57.3335991,64.2984944 C56.4900831,65.7041996 54.6667192,66.1599045 53.2610322,65.3163581 C53.0282028,65.1766381 52.8156456,65.0056318 52.629308,64.8081235 C51.1098778,63.1976065 50.8736255,60.7626881 52.0550898,58.8901029 C58.0050332,49.4597607 60.980005,39.8297264 60.980005,30 C60.980005,20.18457 58.0136806,10.2985858 52.0810317,0.342047337 C51.4561025,-0.706726219 51.7997083,-2.06352736 52.8484875,-2.68844721 C53.1906981,-2.89235498 53.5816503,-3 53.980005,-3 Z" id="Rectangle" transform="translate(59.480005, 32.308124) scale(-1, 1) rotate(-46.000000) translate(-59.480005, -32.308124) "></path>
        </g>
    </g>
</svg>