<?xml version="1.0" encoding="UTF-8"?>
<svg width="70px" height="66px" viewBox="0 0 70 66" version="1.1" xmlns="http://www.w3.org/2000/svg" xmlns:xlink="http://www.w3.org/1999/xlink">
    <title>creative</title>
    <g id="Page-1" stroke="none" stroke-width="1" fill="none" fill-rule="evenodd">
        <g id="Artboard" transform="translate(-221.000000, -192.000000)" fill="#FFFFFF" fill-rule="nonzero">
            <g id="creative" transform="translate(256.000000, 225.000000) scale(-1, 1) translate(-256.000000, -225.000000) translate(221.000000, 192.000000)">
                <path d="M68.6645,7.0785 C59.759,20.319 32.9345,47.1 32.9345,47.1 L32.924,47.0895 C32.861,47.1585 32.804,47.2305 32.7365,47.298 C31.0505,48.981 28.763,49.662 26.5655,49.4025 C27.272,52.3605 26.5265,55.608 24.272,57.9195 C24.272,57.9195 12.992,71.868 0.491,63.0795 C0.491,63.0795 7.232,61.191 7.8185,55.752 C7.8185,55.752 6.9185,50.271 11.867,45.192 C14.0855,42.915 17.189,42.1335 20.0345,42.798 C19.8065,40.632 20.489,38.388 22.151,36.7275 C22.217,36.66 22.2905,36.603 22.3595,36.5385 L22.349,36.528 C22.349,36.528 49.157,9.732 62.417,0.8385 C64.172,-0.417 66.623,-0.27 68.198,1.3035 C69.7775,2.88 69.923,5.3265 68.6645,7.0785 Z M22.184,47.229 C21.071,46.116 19.628,45.4815 18.0845,45.4815 C16.535,45.4815 15.071,46.1055 13.9685,47.238 C10.166,51.141 10.736,55.614 10.751,55.7535 C10.424,58.7835 8.7065,61.365 6.9155,62.9175 C7.5485,63.033 8.189,63.0915 8.843,63.0915 C15.968,63.0915 21.971,56.1015 22.0265,56.0355 C22.028,56.0355 26.135,51.1815 22.184,47.229 Z M22.991,42.012 C22.991,43.206 23.4245,44.331 24.272,45.1755 C25.1195,46.0215 26.294,46.512 27.491,46.512 C28.688,46.512 29.7695,46.023 30.59,45.201 L32.921,42.846 C33.0395,42.7245 33.2015,42.5595 33.332,42.426 L27.0365,36.1305 C26.8985,36.264 26.729,36.4275 26.606,36.549 L24.2705,38.8545 C23.4245,39.6975 22.991,40.818 22.991,42.012 Z M66.08,3.429 C65.7065,3.0555 65.27,3 65.0405,3 C64.7225,3 64.4195,3.096 64.088,3.333 C54.761,9.588 37.0895,26.3835 29.1365,34.0875 L35.375,40.326 C43.085,32.382 59.921,14.7015 66.227,5.328 C66.653,4.737 66.5915,3.9375 66.08,3.429 Z" id="Shape"></path>
            </g>
        </g>
    </g>
</svg>