<?xml version="1.0" encoding="utf-8"?>
<!-- Svg Vector Icons : http://www.onlinewebfonts.com/icon -->
<!DOCTYPE svg PUBLIC "-//W3C//DTD SVG 1.1//EN" "http://www.w3.org/Graphics/SVG/1.1/DTD/svg11.dtd">
<svg version="1.1" xmlns="http://www.w3.org/2000/svg" xmlns:xlink="http://www.w3.org/1999/xlink" x="0px" y="0px" viewBox="0 0 1000 1000" enable-background="new 0 0 1000 1000" xml:space="preserve">
<metadata> Svg Vector Icons : http://www.onlinewebfonts.com/icon </metadata>
<g><g transform="translate(0.000000,511.000000) scale(0.100000,-0.100000)"><path d="M4419.7,5005c-75.4-18.3-141.6-73.1-169-139.3c-18.3-43.4-25.1-290-20.6-819.8l6.8-758.1l59.4-59.4c41.1-41.1,93.6-63.9,166.7-70.8c95.9-11.4,109.6-6.8,185,68.5l79.9,79.9v755.9c0,801.5-6.8,860.9-109.6,911.1C4561.3,5002.8,4472.2,5018.7,4419.7,5005z"/><path d="M6429.2,4313.1c-70.8-38.8-1039-1007.1-1075.6-1075.6c-95.9-180.4,22.8-360.8,237.5-360.8c77.7,0,114.2,32,637.1,554.9c538.9,538.9,554.9,557.2,554.9,646.3c0,105-43.4,178.1-137,226.1C6568.5,4345.1,6493.2,4347.4,6429.2,4313.1z"/><path d="M2341.6,4157.8c-127.9-54.8-191.8-207.8-139.3-326.6c16-41.1,267.2-308.3,554.9-593.7l522.9-520.6H3383c116.5,0,187.2,41.1,239.8,141.6c73.1,139.3,50.2,171.3-534.4,755.9c-463.6,463.6-554.9,543.5-621.1,552.6C2423.9,4173.8,2366.8,4169.3,2341.6,4157.8z"/><path d="M4300.9,2584.5c-226.1-79.9-367.6-212.4-470.4-433.9c-50.2-107.3-50.2-118.8-61.7-1829.2l-11.4-1724.1l-166.7,292.3c-93.6,159.9-205.5,326.6-251.2,372.2c-173.5,175.8-461.3,248.9-698.8,180.4c-239.8-70.8-379.1-198.7-459-424.7c-45.7-123.3-50.2-424.8-11.4-570.9c111.9-429.3,609.7-1568.8,934-2135.1c306-536.6,662.2-1004.8,812.9-1077.9c171.3-82.2,369.9,61.7,344.8,251.2c-6.9,63.9-43.4,123.3-132.5,228.4c-443,504.7-908.9,1372.4-1358.7,2527.9c-82.2,207.8-105,301.4-114.2,447.6c-11.4,180.4-11.4,185,50.2,232.9c77.6,61.7,171.3,63.9,244.3,4.6c32-25.1,226.1-335.7,431.6-689.6c203.2-356.2,392.8-678.2,417.9-719.3c91.3-139.3,262.6-164.4,383.6-54.8l75.4,66.2l11.4,2212.8c11.4,2409.2,4.6,2265.3,143.9,2347.5c95.9,57.1,232.9,34.3,322-54.8l70.8-70.8l11.4-1559.7c13.7-1749.2,2.3-1655.6,180.4-1708.1c73.1-20.5,100.5-20.5,171.3,13.7c146.1,70.8,150.7,89,150.7,844.9c0,723.9,4.6,765,118.7,842.6c64,45.7,205.5,45.7,292.3,2.3c132.4-68.5,137-98.2,137-895.2c0-532.1,9.1-742.2,29.7-783.3c16-32,66.2-75.4,116.5-100.5c116.5-57.1,246.6-22.8,310.6,84.5c41.1,66.2,45.7,118.8,45.7,628c0,609.7,9.1,657.7,137,723.9c137,70.8,312.8,22.8,376.8-102.8c27.4-54.8,34.3-169,34.3-616.6c0-605.1,9.1-653.1,137-719.3c84.5-43.4,143.8-43.4,228.4,0c116.4,59.4,137,132.4,137,486.4c0,292.3,4.6,324.3,52.5,395c27.4,41.1,89.1,89.1,134.7,107.3c121,47.9,237.5-13.7,312.9-162.1c54.8-107.3,54.8-123.3,66.2-799.2c20.6-1256-73.1-2217.4-271.7-2808.8c-36.6-111.9-66.2-232.9-66.2-271.7c0-93.6,127.9-223.8,223.8-223.8c173.6,0,244.4,77.6,335.7,379.1c212.4,689.6,296.9,1546,280.9,2875c-9.1,794.7-11.4,826.7-63.9,959.1c-66.2,173.5-132.5,274-242.1,381.4c-173.6,166.7-449.9,235.2-685.1,171.3l-116.5-29.7l-27.4,73.1C7310.7,275.8,7137.2,447,6977.3,527c-121,59.4-173.5,70.8-312.9,73.1c-98.2,0-207.8-16-269.4-36.5c-95.9-34.3-102.8-34.3-123.3,2.3c-11.4,20.6-66.2,86.8-121.1,143.9c-175.8,187.2-459,271.7-730.7,219.2l-95.9-20.6l-6.9,568.6c-6.8,557.2-6.8,568.6-66.2,694.2c-125.6,267.2-372.2,431.6-669.1,447.6C4465.4,2625.6,4387.7,2614.1,4300.9,2584.5z"/><path d="M5878.9,2205.4c-91.3-91.3-102.8-189.5-32-303.7c70.8-116.4,134.7-125.6,940.8-116.4l723.9,6.8l68.5,66.2c36.5,34.2,73,89.1,82.2,121c18.2,79.9-27.4,203.2-95.9,258c-57.1,43.4-91.3,45.7-833.5,45.7h-776.4L5878.9,2205.4z"/><path d="M1654.3,2091.2c-175.8-77.6-198.7-306-45.7-429.3c43.4-36.5,123.3-41.1,831.2-41.1h785.6l66.2,66.2c52.5,54.8,66.2,86.8,66.2,166.7c0,118.7-48,194.1-150.7,237.5C3097.5,2136.9,1759.3,2136.9,1654.3,2091.2z"/></g></g>
</svg>